<svg width="132" height="132" viewBox="0 0 132 132" fill="none" xmlns="http://www.w3.org/2000/svg">
<circle cx="66" cy="66" r="66" fill="#191919"/>
<path d="M100.302 77.4979C100.29 77.4483 100.29 77.3615 100.278 77.2251C97.319 76.9026 88.8749 76.7042 81.0348 83.2149C81.0348 83.2149 78.5078 71.5576 66.6737 71.5576C54.8396 71.5576 50.4511 83.2149 50.4511 83.2149C43.8191 76.0345 34.9435 76.5554 31.7384 77.0266C31.7384 77.101 31.7261 77.1879 31.7261 77.2623C31.6275 79.0605 31.6768 79.9162 31.9726 81.0447C32.8972 84.5791 35.7448 88.4732 40.2072 92.2928C47.5172 98.5431 57.4283 103.057 64.9355 103.578C72.7633 104.111 84.3139 99.5104 92.006 92.7888C93.2141 91.7099 94.3482 90.569 95.4083 89.3537C96.1726 88.4607 97.3067 86.923 97.2204 86.923C97.1958 86.923 97.2204 86.8982 97.2697 86.8734C97.3067 86.8486 97.3437 86.8114 97.319 86.7866C97.3067 86.7742 97.3314 86.7369 97.3683 86.7245C97.4053 86.7121 97.43 86.6873 97.4176 86.6625C97.4053 86.6377 97.4176 86.6129 97.467 86.6005C97.5039 86.5881 97.5163 86.5509 97.5039 86.5261C97.4916 86.5013 97.5039 86.4765 97.5286 86.4765C97.5533 86.4765 97.5779 86.4393 97.5779 86.4145C97.5779 86.3897 97.6026 86.3525 97.6272 86.3525C97.6519 86.3525 97.6765 86.3277 97.6765 86.3029C97.7135 86.2037 97.7751 86.1045 97.8368 86.0177C98.0217 85.7324 98.7613 84.4055 98.8599 84.1823C99.5626 82.5825 100.006 81.1563 100.216 79.7302C100.29 79.0481 100.352 77.7955 100.302 77.4979ZM69.4843 92.6276C69.25 92.764 69.0898 92.826 69.0528 92.8012C69.0158 92.7888 68.8432 92.64 68.6583 92.5036L68.3255 92.2308L67.9803 92.6028C67.2284 93.4213 67.2037 93.4585 66.9818 93.4709C66.6367 93.5081 66.5627 93.4461 66.1436 92.8136C65.9217 92.4912 65.7491 92.2184 65.7491 92.2184C65.7491 92.2184 65.5889 92.1936 65.404 92.1812L65.0588 92.144L64.8985 92.4788L64.7383 92.8136L64.4548 92.7268C64.2329 92.6524 64.011 92.5656 63.8014 92.4664L63.4316 92.2804V91.5735L66.7106 91.5859L69.9897 91.5983L70.002 91.9331C70.0143 92.33 70.0266 92.3176 69.4843 92.6276ZM75.6478 90.3954C75.4629 91.1022 75.315 91.6727 75.315 91.6975C75.1794 91.7099 75.0561 91.7223 74.9205 91.7099H74.5261L73.996 93.0121C73.7001 93.7189 73.429 94.3762 73.392 94.4754L73.318 94.6491L73.0591 94.2274L72.8003 93.8058V90.3706L72.7016 90.3954C72.4921 90.445 71.0005 90.6434 70.3472 90.7054C67.6475 90.9782 64.9355 90.9162 62.2482 90.5318C61.8167 90.4698 61.4469 90.4202 61.4346 90.4326C61.4223 90.445 61.4346 91.2387 61.4593 92.2184L61.4962 93.9794L61.2867 94.3018C61.1757 94.4754 61.0648 94.6243 61.0648 94.6367C61.0278 94.6739 60.9045 94.4754 60.621 93.905C60.3128 93.3097 60.0909 92.6772 59.9307 92.02L59.8444 91.6603L59.4623 91.6851L59.0801 91.7223L58.9815 91.2635C58.9322 91.0154 58.8706 90.631 58.8459 90.4202L58.8089 90.0233L58.4884 89.7381C58.3035 89.5769 58.1186 89.4157 58.0816 89.3909C58.02 89.3412 57.9953 89.2544 57.9953 89.18V89.0312L59.5362 89.0436L61.0771 89.056L61.1264 89.2172L61.1757 89.3785L61.7058 89.4033C62.0017 89.4157 62.9385 89.4405 63.7768 89.4653L65.3177 89.5025L65.7121 88.8824L66.1189 88.2623H66.6367L66.6243 86.9726L66.612 85.6828L65.934 85.3852C63.7521 84.4179 62.4701 83.3142 61.9893 81.9748C61.8907 81.702 61.8907 81.6028 61.8661 80.3626C61.8537 79.1349 61.8537 79.0233 61.94 78.7504C62.1126 78.1304 62.5934 77.6467 63.2097 77.4855C63.4193 77.4235 63.974 77.4235 66.8832 77.4235L70.3102 77.4359L70.6923 77.6219C71.1484 77.8451 71.358 78.0064 71.6169 78.3536C71.9127 78.7504 71.999 79.0605 71.999 79.817C71.999 80.8959 71.925 81.826 71.8141 82.198C71.6538 82.7065 71.4073 83.1901 71.0991 83.6242C70.4828 84.4179 69.361 85.2116 68.3378 85.5712L68.042 85.6828L68.0543 86.985L68.0666 88.2871L68.3378 88.3119L68.609 88.3367L68.9788 88.8948L69.3363 89.4529H70.9882C71.9004 89.4529 72.7016 89.4653 72.7756 89.4777C72.8989 89.5025 72.9235 89.4901 73.0468 89.2792L73.1947 89.056H74.6124C75.7095 89.056 76.03 89.0684 76.03 89.1056C75.993 89.0932 75.8328 89.7009 75.6478 90.3954Z" fill="white"/>
<path d="M100.258 76.4824C100.234 75.9289 100.184 75.1541 100.147 74.7728C99.6164 69.189 98.1846 64.626 95.4691 59.7925C95.358 59.608 95.2593 59.4235 95.1975 59.2759C95.1729 59.239 95.1605 59.2021 95.1482 59.1775C95.5308 58.0337 97.0984 53.2493 98.345 47.7762C100.036 40.3475 101.11 31.6644 97.8266 29.0569C97.8266 29.0569 92.1488 28.6388 84.5454 36.0674C82.4841 38.1214 80.5956 40.3475 78.917 42.7213L78.3862 42.5491C75.3251 41.5529 72.153 40.9379 68.9561 40.7288C67.9933 40.655 64.4015 40.655 63.2289 40.7288C59.6864 40.9625 56.9709 41.4914 53.8852 42.5614C53.7617 42.6106 53.6507 42.6475 53.5396 42.6844C51.7992 40.3229 49.8613 38.1091 47.726 36.0797C39.814 28.6142 33.9264 29.0446 33.9264 29.0446C30.4456 31.7381 31.6306 40.8149 33.4327 48.4896C34.6176 53.5691 36.0741 58.0337 36.6172 59.6449C36.5801 59.731 36.5308 59.8293 36.4814 59.9154C33.6055 65.7206 32.0502 71.3167 31.6799 77.2695C34.9015 76.8021 43.7762 76.2733 50.4291 83.4068C50.4291 83.4068 54.8233 71.8456 66.6726 71.8456C78.522 71.8456 81.0523 83.4068 81.0523 83.4068C88.9026 76.9497 97.3576 77.1588 100.32 77.4663C100.308 77.2203 100.283 76.8513 100.258 76.4824ZM38.95 55.0081C38.95 55.0081 34.3337 43.5084 35.5186 36.9407C35.7161 35.8338 36.0864 34.8621 36.6665 34.1242C36.6665 34.1242 41.9 34.6407 50.3427 43.9881C50.3427 43.9881 48.7381 44.7629 46.5904 46.411C46.5904 46.411 46.5781 46.4233 46.5657 46.4233C44.2329 48.2067 41.2458 51.0355 38.95 55.0081ZM58.5385 72.0916C58.4645 72.2392 58.0942 72.3991 57.6745 72.4605C57.2548 72.522 55.9712 72.4851 55.2429 72.3991C52.6262 72.0547 49.849 71.2552 47.8247 70.2713C46.6891 69.7178 45.8745 69.1644 45.2697 68.5617L44.9241 68.2051L44.8871 67.7377C44.8253 66.9259 44.8377 65.6468 44.9364 65.1918C44.9981 64.8105 45.1339 64.4415 45.3191 64.1094C45.4178 63.9865 45.4178 63.9864 45.8622 63.9864C46.4053 63.9864 46.8619 64.0725 47.6025 64.3062C49.1207 64.7736 51.3795 65.9051 54.132 67.5532C56.4032 68.9061 57.2548 69.5703 57.909 70.4804C58.3534 71.0461 58.6496 71.8456 58.5385 72.0916ZM87.6189 68.0206C87.5818 68.2174 87.0017 68.8077 86.4216 69.2382C84.7183 70.4804 81.6695 71.6365 78.5714 72.19C76.8063 72.5097 75.0413 72.5589 74.5105 72.3007C74.1649 72.1285 74.1155 71.9932 74.239 71.5504C74.4982 70.628 75.3375 69.6194 76.6459 68.6724C77.3124 68.1927 80.0155 66.557 81.2745 65.8682C83.3482 64.7367 85.0268 64.0602 86.1624 63.9004C86.5203 63.8512 86.9523 63.8389 87.0881 63.9004C87.3103 63.9865 87.5572 64.6383 87.6559 65.4254C87.7053 65.8436 87.6806 67.6885 87.6189 68.0206ZM85.5699 46.411L85.5452 46.3987C83.4716 44.7506 81.9164 43.9758 81.9164 43.9758C90.0752 34.6284 95.1235 34.1119 95.1235 34.1119C95.6789 34.8621 96.0369 35.8215 96.2344 36.9284C97.3823 43.4961 92.9264 55.0081 92.9264 55.0081C91.0626 51.6996 88.557 48.7724 85.5699 46.411Z" fill="#FFF624"/>
<path d="M80.1817 61.0535C80.1817 61.0535 76.2605 61.2738 76.7506 58.5192C77.2408 55.7646 80.3042 55.434 81.162 55.5442C82.0198 55.6544 85.4508 56.7563 84.8381 59.0701C84.2254 61.384 83.3677 60.9433 82.8775 61.0535C82.3874 61.1637 80.1817 61.0535 80.1817 61.0535ZM51.2628 61.0535C51.2628 61.0535 47.3416 61.2738 47.8317 58.5192C48.3219 55.7646 51.3853 55.434 52.2431 55.5442C53.1008 55.6544 56.5319 56.7563 55.9192 59.0701C55.3065 61.384 54.4488 60.9433 53.9586 61.0535C53.4684 61.1637 51.2628 61.0535 51.2628 61.0535Z" fill="#F7F39F"/>
</svg>
